<?xml version="1.0" encoding="UTF-8"?>
<svg width="683.27mm" height="159.43mm" version="1.1" viewBox="0 0 683.27 159.43" xmlns="http://www.w3.org/2000/svg">
<g transform="translate(-84.365 -52.588)">
<path d="m167.88 119.32c12.148-12.355 22.087-22.613 22.086-22.796 0-0.18241-9.7252-9.9855-21.61-21.785-11.885-11.799-21.551-21.508-21.481-21.575 0.0699-0.06716 28.425 9.1017 63.012 20.375 34.587 11.274 64.374 20.982 66.193 21.575l3.3081 1.0777-66.488 22.685c-36.569 12.477-66.628 22.735-66.799 22.796-0.17069 0.0609 9.6292-9.998 21.778-22.353z" fill-opacity="0" stroke-opacity="0"/>
<path d="m167.88 119.32c12.148-12.355 22.087-22.613 22.086-22.796 0-0.18241-9.7252-9.9855-21.61-21.785-11.885-11.799-21.551-21.508-21.481-21.575 0.0699-0.06716 28.425 9.1017 63.012 20.375 34.587 11.274 64.374 20.982 66.193 21.575l3.3081 1.0777-66.488 22.685c-36.569 12.477-66.628 22.735-66.799 22.796-0.17069 0.0609 9.6292-9.998 21.778-22.353z" fill-opacity="0" stroke-opacity="0"/>
<path d="m167.88 119.32c12.148-12.355 22.087-22.613 22.086-22.796 0-0.18241-9.7252-9.9855-21.61-21.785-11.885-11.799-21.551-21.508-21.481-21.575 0.0699-0.06716 28.425 9.1017 63.012 20.375 34.587 11.274 64.374 20.982 66.193 21.575l3.3081 1.0777-66.488 22.685c-36.569 12.477-66.628 22.735-66.799 22.796-0.17069 0.0609 9.6292-9.998 21.778-22.353z" fill-opacity="0" stroke-opacity="0"/>
<path d="m167.88 119.32c12.148-12.355 22.087-22.613 22.086-22.796 0-0.18241-9.7252-9.9855-21.61-21.785-11.885-11.799-21.551-21.508-21.481-21.575 0.0699-0.06716 28.425 9.1017 63.012 20.375 34.587 11.274 64.374 20.982 66.193 21.575l3.3081 1.0777-66.488 22.685c-36.569 12.477-66.628 22.735-66.799 22.796-0.17069 0.0609 9.6292-9.998 21.778-22.353z" fill-opacity="0" stroke-opacity="0"/>
<path d="m167.88 119.32c12.148-12.355 22.087-22.613 22.086-22.796 0-0.18241-9.7252-9.9855-21.61-21.785-11.885-11.799-21.551-21.508-21.481-21.575 0.0699-0.06716 28.425 9.1017 63.012 20.375 34.587 11.274 64.374 20.982 66.193 21.575l3.3081 1.0777-66.488 22.685c-36.569 12.477-66.628 22.735-66.799 22.796-0.17069 0.0609 9.6292-9.998 21.778-22.353z" fill-opacity="0" stroke-opacity="0"/>
<path d="m167.88 119.32c12.148-12.355 22.087-22.613 22.086-22.796 0-0.18241-9.7252-9.9855-21.61-21.785-11.885-11.799-21.551-21.508-21.481-21.575 0.0699-0.06716 28.425 9.1017 63.012 20.375 34.587 11.274 64.374 20.982 66.193 21.575l3.3081 1.0777-66.488 22.685c-36.569 12.477-66.628 22.735-66.799 22.796-0.17069 0.0609 9.6292-9.998 21.778-22.353z" fill-opacity="0" stroke-opacity="0"/>
<path d="m167.88 119.32c12.148-12.355 22.087-22.613 22.086-22.796 0-0.18241-9.7252-9.9855-21.61-21.785-11.885-11.799-21.551-21.508-21.481-21.575 0.0699-0.06716 28.425 9.1017 63.012 20.375 34.587 11.274 64.374 20.982 66.193 21.575l3.3081 1.0777-66.488 22.685c-36.569 12.477-66.628 22.735-66.799 22.796-0.17069 0.0609 9.6292-9.998 21.778-22.353z" fill-opacity="0" stroke-opacity="0"/>
<g transform="matrix(1.7086 0 0 1.7767 -61.489 -164.64)">
<path d="m100.7 210.91c0.24254-0.33228 7.8049-8.1287 16.805-17.325 22.052-22.533 25.732-26.356 25.732-26.724 0-0.43443-0.56284-1.0096-21.116-21.578-19.537-19.552-21.31-21.35-21.052-21.35 0.22636 0 45.706 14.729 80.564 26.091 15.605 5.0866 33.331 10.863 39.391 12.837 6.06 1.9738 10.987 3.6175 10.948 3.6527-0.0385 0.0351-29.491 10.102-65.451 22.37-35.959 12.268-65.579 22.379-65.822 22.469-0.38242 0.1408-0.38242 0.0822 0-0.44162z" fill="#00b2ff" stroke-opacity="0"/>
</g>
<path d="m97.991 209.3c0.4144-0.59038 13.335-14.443 28.713-30.783 37.678-40.035 43.967-46.827 43.967-47.482 0-0.77187-0.96168-1.7939-36.078-38.339-33.381-34.739-36.411-37.934-35.97-37.934 0.38676 0 78.094 26.17 137.65 46.357 26.663 9.0376 56.95 19.301 67.304 22.808 10.354 3.5069 18.772 6.4274 18.706 6.4899-0.0658 0.0624-50.389 17.948-111.83 39.746-61.44 21.798-112.05 39.762-112.46 39.921-0.65341 0.25016-0.65341 0.14605 0-0.78465z" fill="#00f" stroke-opacity="0"/>
<path d="m85.851 208.99c0.4144-0.59038 13.335-14.443 28.713-30.783 37.678-40.035 43.967-46.827 43.967-47.482 0-0.77187-0.96167-1.7939-36.078-38.339-33.381-34.739-36.411-37.934-35.97-37.934 0.38676 0 78.093 26.17 137.65 46.357 26.663 9.0376 56.95 19.301 67.304 22.808 10.354 3.5069 18.772 6.4274 18.706 6.4899-0.0658 0.0624-50.389 17.948-111.83 39.746-61.44 21.798-112.05 39.762-112.46 39.921-0.65341 0.25017-0.65341 0.14605 0-0.78465z" fill="#0047ab" stroke-opacity="0"/>
<g transform="scale(.95528 1.0468)" fill="#0047ab" stroke-width="2.0423" aria-label="cobaltapi">
<path d="m370.31 154.89m52.806 0h-41.914q-10.892 0-10.892-10.892v-32.851q0-4.6184 2.7013-7.7554 2.7884-3.2242 8.1911-3.2242h41.914v10.98h-41.914v32.851h41.914z"/>
<path d="m427.56 154.89m54.549-10.892q0 10.892-10.892 10.892h-32.764q-10.892 0-10.892-10.892v-32.851q0-2.3528 0.87139-4.357t2.3528-3.4856q1.5685-1.4814 3.4856-2.2656 2.0042-0.87139 4.1827-0.87139h32.764q2.2656 0 4.1827 0.87139 2.0042 0.87139 3.4856 2.3528 1.4814 1.4814 2.3528 3.4856 0.87139 2.0042 0.87139 4.2698zm-10.892 0v-32.851h-32.764v32.851z"/>
<path d="m545.55 144q0 4.8798-3.0499 7.9297-2.9627 2.9627-7.7554 2.9627h-43.831v-70.408h10.892v15.685h32.939q2.0913 0 4.0084 0.87139 2.0042 0.78425 3.4856 2.2656 1.4814 1.4814 2.3528 3.4856 0.95853 1.9171 0.95853 4.0955zm-10.805 0v-32.851h-32.939v32.851z"/>
<path d="m607.94 154.89h-43.744q-2.3528 0-4.357-0.78425-2.0042-0.87139-3.4856-2.2656-1.3942-1.4814-2.2656-3.4856-0.78425-2.0042-0.78425-4.357v-10.98q0-4.7927 3.0499-7.8425t7.8425-3.0499h32.764v-10.98h-43.657v-10.98h43.657q4.8798 0 7.9297 3.137 3.0499 3.0499 3.0499 7.8425zm-10.98-10.892v-10.98h-32.764v10.98z"/>
<path d="m628.24 154.89h-11.067v-70.408h11.067z"/>
<path d="m659.35 154.89h-10.98q-2.3528 0-4.357-0.78425-2.0042-0.87139-3.4856-2.2656-1.3942-1.4814-2.2656-3.4856-0.78426-2.0042-0.78426-4.357v-59.342h10.892v15.511h10.98v10.108h-10.98v33.723h10.98z"/>
<path d="m719.57 154.89h-43.744q-2.3528 0-4.357-0.78425-2.0042-0.87139-3.4856-2.2656-1.3942-1.4814-2.2656-3.4856-0.78425-2.0042-0.78425-4.357v-10.98q0-4.7927 3.0499-7.8425t7.8425-3.0499h32.764v-10.98h-43.657v-10.98h43.657q4.8798 0 7.9297 3.137 3.0499 3.0499 3.0499 7.8425zm-10.98-10.892v-10.98h-32.764v10.98z"/>
<path d="m783.44 144.26q0 2.2656-0.95853 4.1827-0.8714 1.9171-2.3528 3.3984-1.4814 1.3942-3.4856 2.2656-2.0042 0.78425-4.1827 0.78425h-32.764v18.125h-10.892v-72.848h43.657q4.9669 0 7.9297 3.0499 3.0499 3.0499 3.0499 7.9297zm-10.98-0.26142v-32.851h-32.764v32.851z"/>
<path d="m792.68 154.89m10.892 0h-10.892v-54.723h10.892z"/>
</g>
</g>
</svg>
